<mxfile host="app.diagrams.net" agent="Mozilla/5.0 (Windows NT 10.0; Win64; x64) AppleWebKit/537.36 (KHTML, like Gecko) Chrome/138.0.0.0 Safari/537.36" version="28.0.4" pages="2">
  <diagram id="0dPHOUwDngtPs_oxOIzv" name="Page-1">
    <mxGraphModel dx="1452" dy="1772" grid="1" gridSize="10" guides="1" tooltips="1" connect="1" arrows="1" fold="1" page="1" pageScale="1" pageWidth="827" pageHeight="1169" math="0" shadow="0">
      <root>
        <mxCell id="0" />
        <mxCell id="1" parent="0" />
        <mxCell id="d-ZkbBJnSJDMCGmhd4bl-20" value="" style="rounded=0;whiteSpace=wrap;html=1;" parent="1" vertex="1">
          <mxGeometry x="120" y="123" width="170" height="117" as="geometry" />
        </mxCell>
        <mxCell id="z9fyJnQdSdRtYb-pN0lm-1" value="" style="rounded=0;whiteSpace=wrap;html=1;" parent="1" vertex="1">
          <mxGeometry x="60" y="-90" width="660" height="390" as="geometry" />
        </mxCell>
        <mxCell id="z9fyJnQdSdRtYb-pN0lm-2" value="" style="verticalLabelPosition=bottom;html=1;verticalAlign=top;align=center;strokeColor=none;fillColor=#00BEF2;shape=mxgraph.azure.virtual_network;pointerEvents=1;" parent="1" vertex="1">
          <mxGeometry x="41" y="-105" width="60" height="30" as="geometry" />
        </mxCell>
        <mxCell id="d-ZkbBJnSJDMCGmhd4bl-1" value="" style="pointerEvents=1;shadow=0;dashed=0;html=1;strokeColor=none;fillColor=#4495D1;labelPosition=center;verticalLabelPosition=bottom;verticalAlign=top;align=center;outlineConnect=0;shape=mxgraph.veeam.hyper_v_host;" parent="1" vertex="1">
          <mxGeometry x="338.6700000000001" y="167" width="90" height="50" as="geometry" />
        </mxCell>
        <mxCell id="d-ZkbBJnSJDMCGmhd4bl-26" value="" style="edgeStyle=orthogonalEdgeStyle;rounded=0;orthogonalLoop=1;jettySize=auto;html=1;shape=link;entryX=0;entryY=0.75;entryDx=0;entryDy=0;" parent="1" source="d-ZkbBJnSJDMCGmhd4bl-2" target="d-ZkbBJnSJDMCGmhd4bl-6" edge="1">
          <mxGeometry relative="1" as="geometry">
            <Array as="points">
              <mxPoint x="529" y="217" />
            </Array>
          </mxGeometry>
        </mxCell>
        <mxCell id="d-ZkbBJnSJDMCGmhd4bl-2" value="&lt;font style=&quot;font-size: 6px;&quot;&gt;ECO-HOST1&lt;/font&gt;" style="rounded=0;whiteSpace=wrap;html=1;" parent="1" vertex="1">
          <mxGeometry x="348.6700000000001" y="207" width="70" height="20" as="geometry" />
        </mxCell>
        <mxCell id="d-ZkbBJnSJDMCGmhd4bl-3" value="" style="pointerEvents=1;shadow=0;dashed=0;html=1;strokeColor=none;fillColor=#4495D1;labelPosition=center;verticalLabelPosition=bottom;verticalAlign=top;align=center;outlineConnect=0;shape=mxgraph.veeam.hyper_v_host;" parent="1" vertex="1">
          <mxGeometry x="183.47" y="167" width="90" height="50" as="geometry" />
        </mxCell>
        <mxCell id="d-ZkbBJnSJDMCGmhd4bl-23" value="" style="edgeStyle=orthogonalEdgeStyle;rounded=0;orthogonalLoop=1;jettySize=auto;html=1;entryX=0;entryY=0.5;entryDx=0;entryDy=0;shape=link;" parent="1" source="d-ZkbBJnSJDMCGmhd4bl-4" target="d-ZkbBJnSJDMCGmhd4bl-2" edge="1">
          <mxGeometry relative="1" as="geometry" />
        </mxCell>
        <mxCell id="d-ZkbBJnSJDMCGmhd4bl-4" value="&lt;span style=&quot;font-family: Calibri; text-align: start; white-space-collapse: preserve; background-color: rgb(255, 255, 255);&quot;&gt;&lt;font style=&quot;font-size: 6px;&quot;&gt;TRADING-HOST&lt;/font&gt;&lt;/span&gt;" style="rounded=0;whiteSpace=wrap;html=1;" parent="1" vertex="1">
          <mxGeometry x="193.47" y="207" width="70" height="20" as="geometry" />
        </mxCell>
        <mxCell id="d-ZkbBJnSJDMCGmhd4bl-5" value="" style="pointerEvents=1;shadow=0;dashed=0;html=1;strokeColor=none;fillColor=#4495D1;labelPosition=center;verticalLabelPosition=bottom;verticalAlign=top;align=center;outlineConnect=0;shape=mxgraph.veeam.hyper_v_host;" parent="1" vertex="1">
          <mxGeometry x="518.6700000000001" y="167" width="90" height="50" as="geometry" />
        </mxCell>
        <mxCell id="d-ZkbBJnSJDMCGmhd4bl-6" value="&lt;font style=&quot;font-size: 6px;&quot;&gt;ECO-HOST4&lt;/font&gt;" style="rounded=0;whiteSpace=wrap;html=1;" parent="1" vertex="1">
          <mxGeometry x="528.6700000000001" y="207" width="70" height="20" as="geometry" />
        </mxCell>
        <mxCell id="d-ZkbBJnSJDMCGmhd4bl-7" value="&lt;font style=&quot;font-size: 6px;&quot;&gt;ECO-VW01&lt;/font&gt;" style="text;html=1;align=center;verticalAlign=middle;resizable=0;points=[];autosize=1;strokeColor=none;fillColor=none;" parent="1" vertex="1">
          <mxGeometry x="171.34" y="120" width="50" height="30" as="geometry" />
        </mxCell>
        <mxCell id="d-ZkbBJnSJDMCGmhd4bl-8" value="&lt;font style=&quot;font-size: 6px;&quot;&gt;ECODB2022&lt;/font&gt;" style="text;html=1;align=center;verticalAlign=middle;resizable=0;points=[];autosize=1;strokeColor=none;fillColor=none;" parent="1" vertex="1">
          <mxGeometry x="237.10999999999999" y="120" width="60" height="30" as="geometry" />
        </mxCell>
        <mxCell id="d-ZkbBJnSJDMCGmhd4bl-9" value="" style="rounded=0;whiteSpace=wrap;html=1;strokeColor=#FFFFFF;" parent="1" vertex="1">
          <mxGeometry x="183.47" y="159" width="90" height="20" as="geometry" />
        </mxCell>
        <mxCell id="d-ZkbBJnSJDMCGmhd4bl-10" value="" style="sketch=0;aspect=fixed;pointerEvents=1;shadow=0;dashed=0;html=1;strokeColor=none;labelPosition=center;verticalLabelPosition=bottom;verticalAlign=top;align=center;fillColor=#00188D;shape=mxgraph.mscae.enterprise.windows_server" parent="1" vertex="1">
          <mxGeometry x="247.23999999999998" y="145" width="25.74" height="33" as="geometry" />
        </mxCell>
        <mxCell id="d-ZkbBJnSJDMCGmhd4bl-11" value="" style="sketch=0;aspect=fixed;pointerEvents=1;shadow=0;dashed=0;html=1;strokeColor=none;labelPosition=center;verticalLabelPosition=bottom;verticalAlign=top;align=center;fillColor=#00188D;shape=mxgraph.mscae.enterprise.windows_server" parent="1" vertex="1">
          <mxGeometry x="183.47" y="146" width="25.74" height="33" as="geometry" />
        </mxCell>
        <mxCell id="d-ZkbBJnSJDMCGmhd4bl-12" value="" style="rounded=0;whiteSpace=wrap;html=1;strokeColor=#FFFFFF;" parent="1" vertex="1">
          <mxGeometry x="338.6700000000001" y="159" width="90" height="20" as="geometry" />
        </mxCell>
        <mxCell id="d-ZkbBJnSJDMCGmhd4bl-13" value="" style="sketch=0;aspect=fixed;pointerEvents=1;shadow=0;dashed=0;html=1;strokeColor=none;labelPosition=center;verticalLabelPosition=bottom;verticalAlign=top;align=center;fillColor=#00188D;shape=mxgraph.mscae.enterprise.windows_server" parent="1" vertex="1">
          <mxGeometry x="338.6700000000001" y="146" width="25.74" height="33" as="geometry" />
        </mxCell>
        <mxCell id="d-ZkbBJnSJDMCGmhd4bl-14" value="" style="sketch=0;aspect=fixed;pointerEvents=1;shadow=0;dashed=0;html=1;strokeColor=none;labelPosition=center;verticalLabelPosition=bottom;verticalAlign=top;align=center;fillColor=#00188D;shape=mxgraph.mscae.enterprise.windows_server" parent="1" vertex="1">
          <mxGeometry x="402.93000000000006" y="145" width="25.74" height="33" as="geometry" />
        </mxCell>
        <mxCell id="d-ZkbBJnSJDMCGmhd4bl-15" value="&lt;font style=&quot;font-size: 6px;&quot;&gt;TECHDB2023&lt;/font&gt;" style="text;html=1;align=center;verticalAlign=middle;resizable=0;points=[];autosize=1;strokeColor=none;fillColor=none;" parent="1" vertex="1">
          <mxGeometry x="318.6700000000001" y="123" width="60" height="30" as="geometry" />
        </mxCell>
        <mxCell id="d-ZkbBJnSJDMCGmhd4bl-16" value="&lt;font style=&quot;font-size: 6px;&quot;&gt;TECHNICAL-VW01&lt;/font&gt;" style="text;html=1;align=center;verticalAlign=middle;resizable=0;points=[];autosize=1;strokeColor=none;fillColor=none;" parent="1" vertex="1">
          <mxGeometry x="376.6700000000001" y="123" width="80" height="30" as="geometry" />
        </mxCell>
        <mxCell id="d-ZkbBJnSJDMCGmhd4bl-17" value="&lt;font style=&quot;&quot;&gt;&lt;span style=&quot;font-size: 6px;&quot;&gt;HostName: ECOS01&lt;/span&gt;&lt;br&gt;&lt;span style=&quot;font-size: 6px;&quot;&gt;Role: Domain controller&lt;/span&gt;&lt;/font&gt;&lt;div&gt;&lt;font style=&quot;&quot;&gt;&lt;span style=&quot;font-size: 6px;&quot;&gt;&lt;br&gt;&lt;/span&gt;&lt;/font&gt;&lt;/div&gt;" style="text;html=1;align=center;verticalAlign=middle;resizable=0;points=[];autosize=1;strokeColor=none;fillColor=none;" parent="1" vertex="1">
          <mxGeometry x="516.6700000000001" y="105" width="90" height="60" as="geometry" />
        </mxCell>
        <mxCell id="d-ZkbBJnSJDMCGmhd4bl-18" value="" style="rounded=0;whiteSpace=wrap;html=1;strokeColor=#FFFFFF;" parent="1" vertex="1">
          <mxGeometry x="518.6700000000001" y="159" width="90" height="20" as="geometry" />
        </mxCell>
        <mxCell id="d-ZkbBJnSJDMCGmhd4bl-19" value="" style="sketch=0;aspect=fixed;pointerEvents=1;shadow=0;dashed=0;html=1;strokeColor=none;labelPosition=center;verticalLabelPosition=bottom;verticalAlign=top;align=center;fillColor=#00188D;shape=mxgraph.mscae.enterprise.windows_server" parent="1" vertex="1">
          <mxGeometry x="548.8000000000001" y="145" width="25.74" height="33" as="geometry" />
        </mxCell>
        <mxCell id="d-ZkbBJnSJDMCGmhd4bl-28" value="192.168.1.0/32&lt;div&gt;&lt;br&gt;&lt;/div&gt;" style="text;html=1;align=center;verticalAlign=middle;resizable=0;points=[];autosize=1;strokeColor=none;fillColor=none;" parent="1" vertex="1">
          <mxGeometry x="93.47" y="-110" width="100" height="40" as="geometry" />
        </mxCell>
        <mxCell id="LJP7C2cjOiO_ake7uwHu-4" value="" style="sketch=0;aspect=fixed;pointerEvents=1;shadow=0;dashed=0;html=1;strokeColor=none;labelPosition=center;verticalLabelPosition=bottom;verticalAlign=top;align=center;fillColor=#00188D;shape=mxgraph.mscae.enterprise.router" parent="1" vertex="1">
          <mxGeometry x="358.03" y="-10" width="51.28" height="40" as="geometry" />
        </mxCell>
        <mxCell id="LJP7C2cjOiO_ake7uwHu-5" style="edgeStyle=orthogonalEdgeStyle;rounded=0;orthogonalLoop=1;jettySize=auto;html=1;shape=link;" parent="1" source="LJP7C2cjOiO_ake7uwHu-4" edge="1">
          <mxGeometry relative="1" as="geometry">
            <mxPoint x="230" y="110" as="targetPoint" />
          </mxGeometry>
        </mxCell>
        <mxCell id="hfbNxXTssxLgHJnjqYqY-1" value="" style="shape=image;html=1;verticalAlign=top;verticalLabelPosition=bottom;labelBackgroundColor=#ffffff;imageAspect=0;aspect=fixed;image=https://cdn3.iconfinder.com/data/icons/snowish/128x128/apps/gnome-control-center.png;fillColor=#3333FF;" parent="1" vertex="1">
          <mxGeometry x="602" width="28" height="28" as="geometry" />
        </mxCell>
        <mxCell id="hfbNxXTssxLgHJnjqYqY-2" value="" style="sketch=0;aspect=fixed;pointerEvents=1;shadow=0;dashed=0;html=1;strokeColor=none;labelPosition=center;verticalLabelPosition=bottom;verticalAlign=top;align=center;fillColor=#00188D;shape=mxgraph.azure.user" parent="1" vertex="1">
          <mxGeometry x="630" y="-5" width="28.2" height="30" as="geometry" />
        </mxCell>
        <mxCell id="D6uGGZ0vzgsLB2J4IqJi-1" style="edgeStyle=orthogonalEdgeStyle;rounded=0;orthogonalLoop=1;jettySize=auto;html=1;entryX=0.079;entryY=0.084;entryDx=0;entryDy=0;entryPerimeter=0;shape=link;" parent="1" source="LJP7C2cjOiO_ake7uwHu-4" target="d-ZkbBJnSJDMCGmhd4bl-16" edge="1">
          <mxGeometry relative="1" as="geometry" />
        </mxCell>
      </root>
    </mxGraphModel>
  </diagram>
  <diagram id="LU5zmo3wUBJtHhTeMPo3" name="Page-2">
    <mxGraphModel dx="2901" dy="2030" grid="1" gridSize="10" guides="1" tooltips="1" connect="1" arrows="1" fold="1" page="1" pageScale="1" pageWidth="827" pageHeight="1169" math="0" shadow="0">
      <root>
        <mxCell id="0" />
        <mxCell id="1" parent="0" />
        <mxCell id="N67Mu1rqHQ3CuwdL4xIl-31" value="" style="rounded=0;whiteSpace=wrap;html=1;" parent="1" vertex="1">
          <mxGeometry x="-30" y="-50" width="770" height="580" as="geometry" />
        </mxCell>
        <mxCell id="N67Mu1rqHQ3CuwdL4xIl-18" value="" style="ellipse;shape=cloud;whiteSpace=wrap;html=1;" parent="1" vertex="1">
          <mxGeometry x="185" y="59" width="85" height="40" as="geometry" />
        </mxCell>
        <mxCell id="N67Mu1rqHQ3CuwdL4xIl-13" value="" style="ellipse;shape=cloud;whiteSpace=wrap;html=1;" parent="1" vertex="1">
          <mxGeometry x="580" y="49" width="160" height="87" as="geometry" />
        </mxCell>
        <mxCell id="OvXRGE29BXUb_DR9eGdn-3" value="" style="whiteSpace=wrap;html=1;aspect=fixed;strokeColor=#99CCFF;" parent="1" vertex="1">
          <mxGeometry x="450" y="170" width="150" height="150" as="geometry" />
        </mxCell>
        <mxCell id="OvXRGE29BXUb_DR9eGdn-2" value="" style="whiteSpace=wrap;html=1;aspect=fixed;strokeColor=#99CCFF;" parent="1" vertex="1">
          <mxGeometry x="270" y="170" width="150" height="150" as="geometry" />
        </mxCell>
        <mxCell id="OvXRGE29BXUb_DR9eGdn-1" value="" style="whiteSpace=wrap;html=1;aspect=fixed;strokeColor=#99CCFF;" parent="1" vertex="1">
          <mxGeometry x="95" y="170" width="150" height="150" as="geometry" />
        </mxCell>
        <mxCell id="jzbuyV7Re6z5202wPfiP-3" value="" style="pointerEvents=1;shadow=0;dashed=0;html=1;strokeColor=none;fillColor=#4495D1;labelPosition=center;verticalLabelPosition=bottom;verticalAlign=top;align=center;outlineConnect=0;shape=mxgraph.veeam.hyper_v_host;" parent="1" vertex="1">
          <mxGeometry x="289" y="222" width="100" height="50" as="geometry" />
        </mxCell>
        <mxCell id="jzbuyV7Re6z5202wPfiP-14" value="&lt;div&gt;&lt;font style=&quot;font-size: 6px;&quot;&gt;ECO-HOST4&lt;/font&gt;&lt;/div&gt;&lt;div&gt;&lt;font style=&quot;&quot;&gt;&lt;span style=&quot;font-size: 6px;&quot;&gt;IP: 192.168.1.234&lt;/span&gt;&lt;/font&gt;&lt;/div&gt;" style="rounded=0;whiteSpace=wrap;html=1;strokeColor=#FF8000;" parent="1" vertex="1">
          <mxGeometry x="293" y="262" width="94" height="30" as="geometry" />
        </mxCell>
        <mxCell id="jzbuyV7Re6z5202wPfiP-15" value="" style="pointerEvents=1;shadow=0;dashed=0;html=1;strokeColor=none;fillColor=#4495D1;labelPosition=center;verticalLabelPosition=bottom;verticalAlign=top;align=center;outlineConnect=0;shape=mxgraph.veeam.hyper_v_host;" parent="1" vertex="1">
          <mxGeometry x="122.80000000000001" y="222" width="90" height="50" as="geometry" />
        </mxCell>
        <mxCell id="jzbuyV7Re6z5202wPfiP-16" value="&lt;span style=&quot;font-family: Calibri; text-align: start; white-space-collapse: preserve; background-color: rgb(255, 255, 255);&quot;&gt;&lt;font style=&quot;font-size: 6px;&quot;&gt;TRADING-HOST &lt;/font&gt;&lt;/span&gt;&lt;div&gt;&lt;span style=&quot;background-color: light-dark(rgb(255, 255, 255), rgb(18, 18, 18)); color: light-dark(rgb(0, 0, 0), rgb(255, 255, 255)); font-family: Calibri; font-size: 6px; text-align: start; white-space-collapse: preserve;&quot;&gt;IP: 192.168.1.49&lt;/span&gt;&lt;/div&gt;" style="rounded=0;whiteSpace=wrap;html=1;strokeColor=#FF8000;" parent="1" vertex="1">
          <mxGeometry x="126" y="260" width="80" height="30" as="geometry" />
        </mxCell>
        <mxCell id="jzbuyV7Re6z5202wPfiP-17" value="" style="pointerEvents=1;shadow=0;dashed=0;html=1;strokeColor=none;fillColor=#4495D1;labelPosition=center;verticalLabelPosition=bottom;verticalAlign=top;align=center;outlineConnect=0;shape=mxgraph.veeam.hyper_v_host;" parent="1" vertex="1">
          <mxGeometry x="480" y="222" width="90" height="50" as="geometry" />
        </mxCell>
        <mxCell id="jzbuyV7Re6z5202wPfiP-18" value="&lt;div&gt;&lt;font style=&quot;&quot;&gt;&lt;span style=&quot;font-size: 6px;&quot;&gt;ECO-HOST01&lt;/span&gt;&lt;/font&gt;&lt;/div&gt;&lt;div&gt;&lt;font style=&quot;&quot;&gt;&lt;span style=&quot;font-size: 6px;&quot;&gt;IP: 192.168.1.4&lt;/span&gt;&lt;/font&gt;&lt;/div&gt;" style="rounded=0;whiteSpace=wrap;html=1;strokeColor=#FF8000;" parent="1" vertex="1">
          <mxGeometry x="484" y="262" width="80" height="28" as="geometry" />
        </mxCell>
        <mxCell id="jzbuyV7Re6z5202wPfiP-21" value="&lt;font style=&quot;font-size: 6px;&quot;&gt;ECO-VW01&lt;/font&gt;&lt;div&gt;&lt;font style=&quot;&quot;&gt;&lt;span style=&quot;font-size: 6px;&quot;&gt;IP: 192.168.1.61&lt;/span&gt;&lt;/font&gt;&lt;/div&gt;" style="text;html=1;align=center;verticalAlign=middle;resizable=0;points=[];autosize=1;strokeColor=none;fillColor=none;" parent="1" vertex="1">
          <mxGeometry x="93.66999999999999" y="165" width="70" height="40" as="geometry" />
        </mxCell>
        <mxCell id="jzbuyV7Re6z5202wPfiP-22" value="&lt;font style=&quot;font-size: 6px;&quot;&gt;ECODB2022&lt;/font&gt;&lt;div&gt;&lt;span style=&quot;font-size: 6px;&quot;&gt;IP: 192.168.1.92&lt;/span&gt;&lt;/div&gt;" style="text;html=1;align=center;verticalAlign=middle;resizable=0;points=[];autosize=1;strokeColor=none;fillColor=none;" parent="1" vertex="1">
          <mxGeometry x="155.44" y="165" width="70" height="40" as="geometry" />
        </mxCell>
        <mxCell id="jzbuyV7Re6z5202wPfiP-23" value="" style="rounded=0;whiteSpace=wrap;html=1;strokeColor=#FFFFFF;" parent="1" vertex="1">
          <mxGeometry x="122.80000000000001" y="214" width="90" height="20" as="geometry" />
        </mxCell>
        <mxCell id="jzbuyV7Re6z5202wPfiP-25" value="" style="sketch=0;aspect=fixed;pointerEvents=1;shadow=0;dashed=0;html=1;strokeColor=none;labelPosition=center;verticalLabelPosition=bottom;verticalAlign=top;align=center;fillColor=#00188D;shape=mxgraph.mscae.enterprise.windows_server" parent="1" vertex="1">
          <mxGeometry x="187.57" y="200" width="25.74" height="33" as="geometry" />
        </mxCell>
        <mxCell id="jzbuyV7Re6z5202wPfiP-26" value="" style="sketch=0;aspect=fixed;pointerEvents=1;shadow=0;dashed=0;html=1;strokeColor=none;labelPosition=center;verticalLabelPosition=bottom;verticalAlign=top;align=center;fillColor=#00188D;shape=mxgraph.mscae.enterprise.windows_server" parent="1" vertex="1">
          <mxGeometry x="122.80000000000001" y="201" width="25.74" height="33" as="geometry" />
        </mxCell>
        <mxCell id="jzbuyV7Re6z5202wPfiP-27" value="" style="rounded=0;whiteSpace=wrap;html=1;strokeColor=#FFFFFF;" parent="1" vertex="1">
          <mxGeometry x="289" y="214" width="110" height="20" as="geometry" />
        </mxCell>
        <mxCell id="jzbuyV7Re6z5202wPfiP-28" value="" style="sketch=0;aspect=fixed;pointerEvents=1;shadow=0;dashed=0;html=1;strokeColor=none;labelPosition=center;verticalLabelPosition=bottom;verticalAlign=top;align=center;fillColor=#00188D;shape=mxgraph.mscae.enterprise.windows_server" parent="1" vertex="1">
          <mxGeometry x="300" y="201" width="25.74" height="33" as="geometry" />
        </mxCell>
        <mxCell id="jzbuyV7Re6z5202wPfiP-29" value="" style="sketch=0;aspect=fixed;pointerEvents=1;shadow=0;dashed=0;html=1;strokeColor=none;labelPosition=center;verticalLabelPosition=bottom;verticalAlign=top;align=center;fillColor=#00188D;shape=mxgraph.mscae.enterprise.windows_server" parent="1" vertex="1">
          <mxGeometry x="364.26" y="200" width="25.74" height="33" as="geometry" />
        </mxCell>
        <mxCell id="jzbuyV7Re6z5202wPfiP-30" value="&lt;font style=&quot;font-size: 6px;&quot;&gt;HOST: TECHDB2023&lt;/font&gt;&lt;div&gt;&lt;font style=&quot;&quot;&gt;&lt;span style=&quot;font-size: 6px;&quot;&gt;IP: 192.168.1.85&lt;/span&gt;&lt;/font&gt;&lt;/div&gt;" style="text;html=1;align=center;verticalAlign=middle;resizable=0;points=[];autosize=1;strokeColor=none;fillColor=none;" parent="1" vertex="1">
          <mxGeometry x="260" y="165" width="80" height="40" as="geometry" />
        </mxCell>
        <mxCell id="jzbuyV7Re6z5202wPfiP-31" value="&lt;font style=&quot;font-size: 6px;&quot;&gt;HOST: TECHNICAL-VW01&lt;/font&gt;&lt;div&gt;&lt;font style=&quot;&quot;&gt;&lt;span style=&quot;font-size: 6px;&quot;&gt;IP: 192.168.1.54&lt;/span&gt;&lt;/font&gt;&lt;/div&gt;" style="text;html=1;align=center;verticalAlign=middle;resizable=0;points=[];autosize=1;strokeColor=none;fillColor=none;" parent="1" vertex="1">
          <mxGeometry x="332" y="165" width="100" height="40" as="geometry" />
        </mxCell>
        <mxCell id="jzbuyV7Re6z5202wPfiP-32" value="&lt;font style=&quot;font-size: 6px;&quot;&gt;HOSTNAME: ECOS01&lt;/font&gt;&lt;div&gt;&lt;font style=&quot;&quot;&gt;&lt;span style=&quot;font-size: 6px;&quot;&gt;IP: 192.168.1.5&lt;/span&gt;&lt;/font&gt;&lt;/div&gt;" style="text;html=1;align=center;verticalAlign=middle;resizable=0;points=[];autosize=1;strokeColor=none;fillColor=none;" parent="1" vertex="1">
          <mxGeometry x="479" y="165" width="80" height="40" as="geometry" />
        </mxCell>
        <mxCell id="jzbuyV7Re6z5202wPfiP-33" value="" style="rounded=0;whiteSpace=wrap;html=1;strokeColor=#FFFFFF;" parent="1" vertex="1">
          <mxGeometry x="480" y="214" width="90" height="20" as="geometry" />
        </mxCell>
        <mxCell id="jzbuyV7Re6z5202wPfiP-34" value="" style="sketch=0;aspect=fixed;pointerEvents=1;shadow=0;dashed=0;html=1;strokeColor=none;labelPosition=center;verticalLabelPosition=bottom;verticalAlign=top;align=center;fillColor=#00188D;shape=mxgraph.mscae.enterprise.windows_server" parent="1" vertex="1">
          <mxGeometry x="510.13" y="200" width="25.74" height="33" as="geometry" />
        </mxCell>
        <mxCell id="Kxc33UjvSA3hfyQA0yWE-5" style="edgeStyle=orthogonalEdgeStyle;rounded=0;orthogonalLoop=1;jettySize=auto;html=1;exitX=0.87;exitY=0.5;exitDx=0;exitDy=0;exitPerimeter=0;" parent="1" source="Kxc33UjvSA3hfyQA0yWE-1" edge="1">
          <mxGeometry relative="1" as="geometry">
            <mxPoint x="530" y="170" as="targetPoint" />
            <Array as="points">
              <mxPoint x="-7" y="120" />
              <mxPoint x="530" y="120" />
            </Array>
          </mxGeometry>
        </mxCell>
        <mxCell id="N67Mu1rqHQ3CuwdL4xIl-8" style="edgeStyle=orthogonalEdgeStyle;rounded=0;orthogonalLoop=1;jettySize=auto;html=1;" parent="1" source="Kxc33UjvSA3hfyQA0yWE-1" edge="1">
          <mxGeometry relative="1" as="geometry">
            <mxPoint x="195" y="170" as="targetPoint" />
            <Array as="points">
              <mxPoint x="195" y="120" />
            </Array>
          </mxGeometry>
        </mxCell>
        <mxCell id="N67Mu1rqHQ3CuwdL4xIl-3" style="edgeStyle=orthogonalEdgeStyle;rounded=0;orthogonalLoop=1;jettySize=auto;html=1;" parent="1" edge="1">
          <mxGeometry relative="1" as="geometry">
            <mxPoint x="104" y="346" as="sourcePoint" />
            <mxPoint x="162" y="320" as="targetPoint" />
            <Array as="points">
              <mxPoint x="162" y="346" />
            </Array>
          </mxGeometry>
        </mxCell>
        <mxCell id="N67Mu1rqHQ3CuwdL4xIl-5" style="edgeStyle=orthogonalEdgeStyle;rounded=0;orthogonalLoop=1;jettySize=auto;html=1;entryX=0.5;entryY=1;entryDx=0;entryDy=0;" parent="1" source="MwFngIVzMn7YwzYzBQoj-1" target="OvXRGE29BXUb_DR9eGdn-3" edge="1">
          <mxGeometry relative="1" as="geometry" />
        </mxCell>
        <mxCell id="MwFngIVzMn7YwzYzBQoj-1" value="" style="shape=image;html=1;verticalAlign=top;verticalLabelPosition=bottom;labelBackgroundColor=#ffffff;imageAspect=0;aspect=fixed;image=https://cdn3.iconfinder.com/data/icons/snowish/128x128/apps/gnome-control-center.png;fillColor=#3333FF;" parent="1" vertex="1">
          <mxGeometry x="48.20000000000002" y="332" width="28" height="28" as="geometry" />
        </mxCell>
        <mxCell id="MwFngIVzMn7YwzYzBQoj-2" value="&lt;font style=&quot;font-size: 6px;&quot;&gt;Management Tools&amp;nbsp;&lt;/font&gt;&lt;div&gt;&lt;font style=&quot;font-size: 6px;&quot;&gt;RRM/N-SIGHT&lt;/font&gt;&lt;/div&gt;&lt;div&gt;&lt;font style=&quot;font-size: 6px;&quot;&gt;Active directory&lt;/font&gt;&lt;/div&gt;&lt;div&gt;&lt;br&gt;&lt;/div&gt;" style="sketch=0;aspect=fixed;pointerEvents=1;shadow=0;dashed=0;html=1;strokeColor=none;labelPosition=center;verticalLabelPosition=bottom;verticalAlign=top;align=center;fillColor=#00188D;shape=mxgraph.azure.user" parent="1" vertex="1">
          <mxGeometry x="20.000000000000014" y="332" width="28.2" height="30" as="geometry" />
        </mxCell>
        <mxCell id="N67Mu1rqHQ3CuwdL4xIl-4" style="edgeStyle=orthogonalEdgeStyle;rounded=0;orthogonalLoop=1;jettySize=auto;html=1;entryX=0.554;entryY=0.99;entryDx=0;entryDy=0;entryPerimeter=0;" parent="1" source="MwFngIVzMn7YwzYzBQoj-1" target="OvXRGE29BXUb_DR9eGdn-2" edge="1">
          <mxGeometry relative="1" as="geometry" />
        </mxCell>
        <mxCell id="N67Mu1rqHQ3CuwdL4xIl-6" style="edgeStyle=orthogonalEdgeStyle;rounded=0;orthogonalLoop=1;jettySize=auto;html=1;exitX=0.87;exitY=0.5;exitDx=0;exitDy=0;exitPerimeter=0;" parent="1" source="Kxc33UjvSA3hfyQA0yWE-1" edge="1">
          <mxGeometry relative="1" as="geometry">
            <mxPoint x="360" y="170" as="targetPoint" />
            <Array as="points">
              <mxPoint x="360" y="120" />
            </Array>
          </mxGeometry>
        </mxCell>
        <mxCell id="N67Mu1rqHQ3CuwdL4xIl-10" value="" style="image;aspect=fixed;html=1;points=[];align=center;fontSize=12;image=img/lib/azure2/other/Managed_File_Shares.svg;" parent="1" vertex="1">
          <mxGeometry x="620" y="72" width="40" height="40" as="geometry" />
        </mxCell>
        <mxCell id="N67Mu1rqHQ3CuwdL4xIl-11" value="" style="sketch=0;pointerEvents=1;shadow=0;dashed=0;html=1;strokeColor=none;fillColor=#005F4B;labelPosition=center;verticalLabelPosition=bottom;verticalAlign=top;align=center;outlineConnect=0;shape=mxgraph.veeam2.domain_controller;" parent="1" vertex="1">
          <mxGeometry x="670" y="80" width="30" height="30" as="geometry" />
        </mxCell>
        <mxCell id="N67Mu1rqHQ3CuwdL4xIl-14" value="&lt;span style=&quot;font-size: 6px; background-color: rgb(255, 255, 255);&quot;&gt;File Server&lt;/span&gt;" style="text;html=1;align=center;verticalAlign=middle;resizable=0;points=[];autosize=1;strokeColor=none;fillColor=none;" parent="1" vertex="1">
          <mxGeometry x="608" y="59" width="50" height="30" as="geometry" />
        </mxCell>
        <mxCell id="N67Mu1rqHQ3CuwdL4xIl-15" value="&lt;font style=&quot;font-size: 6px;&quot;&gt;Domain controller&amp;nbsp;&lt;/font&gt;" style="text;html=1;align=center;verticalAlign=middle;resizable=0;points=[];autosize=1;strokeColor=none;fillColor=none;" parent="1" vertex="1">
          <mxGeometry x="650" y="59" width="70" height="30" as="geometry" />
        </mxCell>
        <mxCell id="N67Mu1rqHQ3CuwdL4xIl-16" style="edgeStyle=orthogonalEdgeStyle;rounded=0;orthogonalLoop=1;jettySize=auto;html=1;entryX=0.97;entryY=0.685;entryDx=0;entryDy=0;entryPerimeter=0;" parent="1" source="N67Mu1rqHQ3CuwdL4xIl-13" target="jzbuyV7Re6z5202wPfiP-34" edge="1">
          <mxGeometry relative="1" as="geometry">
            <Array as="points">
              <mxPoint x="670" y="223" />
            </Array>
          </mxGeometry>
        </mxCell>
        <mxCell id="N67Mu1rqHQ3CuwdL4xIl-17" value="" style="image;sketch=0;aspect=fixed;html=1;points=[];align=center;fontSize=12;image=img/lib/mscae/dep/SQL_Server_Stretch_DB.svg;" parent="1" vertex="1">
          <mxGeometry x="226" y="67" width="24" height="24" as="geometry" />
        </mxCell>
        <mxCell id="N67Mu1rqHQ3CuwdL4xIl-20" style="edgeStyle=orthogonalEdgeStyle;rounded=0;orthogonalLoop=1;jettySize=auto;html=1;entryX=0.886;entryY=0.252;entryDx=0;entryDy=0;entryPerimeter=0;exitX=0.836;exitY=0.8;exitDx=0;exitDy=0;exitPerimeter=0;" parent="1" source="N67Mu1rqHQ3CuwdL4xIl-18" target="jzbuyV7Re6z5202wPfiP-25" edge="1">
          <mxGeometry relative="1" as="geometry">
            <mxPoint x="257" y="50" as="sourcePoint" />
            <mxPoint x="217.44000000000005" y="209.00000000000023" as="targetPoint" />
            <Array as="points">
              <mxPoint x="256" y="95" />
              <mxPoint x="257" y="95" />
              <mxPoint x="257" y="208" />
            </Array>
          </mxGeometry>
        </mxCell>
        <mxCell id="N67Mu1rqHQ3CuwdL4xIl-25" value="" style="ellipse;shape=cloud;whiteSpace=wrap;html=1;" parent="1" vertex="1">
          <mxGeometry x="380" y="60" width="76" height="40" as="geometry" />
        </mxCell>
        <mxCell id="N67Mu1rqHQ3CuwdL4xIl-26" value="" style="image;sketch=0;aspect=fixed;html=1;points=[];align=center;fontSize=12;image=img/lib/mscae/dep/SQL_Server_Stretch_DB.svg;" parent="1" vertex="1">
          <mxGeometry x="413" y="69" width="22" height="22" as="geometry" />
        </mxCell>
        <mxCell id="N67Mu1rqHQ3CuwdL4xIl-27" style="edgeStyle=orthogonalEdgeStyle;rounded=0;orthogonalLoop=1;jettySize=auto;html=1;entryX=1.105;entryY=0.368;entryDx=0;entryDy=0;entryPerimeter=0;" parent="1" source="N67Mu1rqHQ3CuwdL4xIl-25" target="jzbuyV7Re6z5202wPfiP-29" edge="1">
          <mxGeometry relative="1" as="geometry">
            <Array as="points">
              <mxPoint x="440" y="212" />
            </Array>
          </mxGeometry>
        </mxCell>
        <mxCell id="N67Mu1rqHQ3CuwdL4xIl-28" value="&lt;font style=&quot;font-size: 6px;&quot;&gt;Hyper-V Virtual Network&lt;/font&gt;" style="verticalLabelPosition=bottom;html=1;verticalAlign=top;align=center;strokeColor=none;fillColor=#00BEF2;shape=mxgraph.azure.virtual_network;pointerEvents=1;" parent="1" vertex="1">
          <mxGeometry x="588" y="305" width="20" height="7.5" as="geometry" />
        </mxCell>
        <mxCell id="N67Mu1rqHQ3CuwdL4xIl-29" value="&lt;font style=&quot;font-size: 6px;&quot;&gt;Hyper-V Virtual Network&lt;/font&gt;" style="verticalLabelPosition=bottom;html=1;verticalAlign=top;align=center;strokeColor=none;fillColor=#00BEF2;shape=mxgraph.azure.virtual_network;pointerEvents=1;" parent="1" vertex="1">
          <mxGeometry x="409" y="305" width="20" height="7.5" as="geometry" />
        </mxCell>
        <mxCell id="N67Mu1rqHQ3CuwdL4xIl-30" value="&lt;font style=&quot;font-size: 6px;&quot;&gt;Hyper-V Virtual Network&lt;/font&gt;" style="verticalLabelPosition=bottom;html=1;verticalAlign=top;align=center;strokeColor=none;fillColor=#00BEF2;shape=mxgraph.azure.virtual_network;pointerEvents=1;" parent="1" vertex="1">
          <mxGeometry x="233" y="305" width="20" height="7.5" as="geometry" />
        </mxCell>
        <mxCell id="Kxc33UjvSA3hfyQA0yWE-1" value="&lt;font style=&quot;font-size: 6px;&quot;&gt;Router&lt;/font&gt;&lt;div&gt;&lt;font style=&quot;font-size: 9px;&quot;&gt;Network Block:&amp;nbsp;&lt;/font&gt;&lt;/div&gt;&lt;div&gt;&lt;font style=&quot;font-size: 9px;&quot;&gt;192.168.1.0/24&lt;/font&gt;&lt;/div&gt;" style="sketch=0;aspect=fixed;pointerEvents=1;shadow=0;dashed=0;html=1;strokeColor=none;labelPosition=center;verticalLabelPosition=bottom;verticalAlign=top;align=center;fillColor=#00188D;shape=mxgraph.mscae.enterprise.router" parent="1" vertex="1">
          <mxGeometry x="-30.000000000000004" y="99" width="59.48" height="46.4" as="geometry" />
        </mxCell>
        <mxCell id="N67Mu1rqHQ3CuwdL4xIl-32" value="&lt;font style=&quot;font-size: 18px;&quot;&gt;ECOMED SERVER NETWORK ARCHITCTURE&lt;/font&gt;" style="rounded=0;whiteSpace=wrap;html=1;fillColor=#CCFF99;" parent="1" vertex="1">
          <mxGeometry x="-30" y="-100" width="770" height="50" as="geometry" />
        </mxCell>
        <mxCell id="N67Mu1rqHQ3CuwdL4xIl-33" value="&lt;div style=&quot;&quot;&gt;&lt;span style=&quot;background-color: light-dark(#ffffff, var(--ge-dark-color, #121212)); text-wrap-mode: wrap;&quot;&gt;&lt;font style=&quot;font-size: 8px;&quot; face=&quot;Arial, sans-serif&quot; color=&quot;#767676&quot;&gt;&lt;b style=&quot;&quot;&gt;ShadowProtect&amp;nbsp;&lt;/b&gt;&lt;/font&gt;&lt;/span&gt;&lt;/div&gt;&lt;div style=&quot;&quot;&gt;&lt;font style=&quot;font-size: 8px;&quot; face=&quot;Arial, sans-serif&quot; color=&quot;#767676&quot;&gt;&lt;span style=&quot;text-wrap-mode: wrap;&quot;&gt;&lt;b style=&quot;&quot;&gt;Backup&lt;/b&gt;&lt;/span&gt;&lt;/font&gt;&lt;/div&gt;" style="image;aspect=fixed;html=1;points=[];align=center;fontSize=12;image=img/lib/azure2/other/Backup_Vault.svg;" parent="1" vertex="1">
          <mxGeometry x="16.509999999999998" y="430" width="35.19" height="30" as="geometry" />
        </mxCell>
        <mxCell id="N67Mu1rqHQ3CuwdL4xIl-34" value="" style="sketch=0;aspect=fixed;pointerEvents=1;shadow=0;dashed=0;html=1;strokeColor=none;labelPosition=center;verticalLabelPosition=bottom;verticalAlign=top;align=center;fillColor=#00188D;shape=mxgraph.azure.laptop" parent="1" vertex="1">
          <mxGeometry x="-10" y="305" width="73.32" height="44" as="geometry" />
        </mxCell>
      </root>
    </mxGraphModel>
  </diagram>
</mxfile>
